<svg xmlns="http://www.w3.org/2000/svg" viewBox="0 0 512 512" width="512" height="512">
  <defs>
    <linearGradient id="bg" x1="0%" y1="0%" x2="100%" y2="100%">
      <stop offset="0%" style="stop-color:#6C5CE7"/>
      <stop offset="100%" style="stop-color:#a855f7"/>
    </linearGradient>
    <filter id="glow">
      <feGaussianBlur stdDeviation="4" result="coloredBlur"/>
      <feMerge>
        <feMergeNode in="coloredBlur"/>
        <feMergeNode in="SourceGraphic"/>
      </feMerge>
    </filter>
  </defs>
  <rect width="512" height="512" rx="100" fill="url(#bg)"/>
  <!-- Bell -->
  <g transform="translate(256,230)" filter="url(#glow)">
    <path d="M0-100 C-56-100-80-50-80 0 C-80 40-84 65-106 84 L106 84 C84 65 80 40 80 0 C80-50 56-100 0-100Z" fill="white" opacity="0.95"/>
    <circle cx="0" cy="-112" r="16" fill="white"/>
    <path d="M-32 96 Q0 128 32 96" fill="none" stroke="white" stroke-width="10" stroke-linecap="round"/>
  </g>
  <!-- AI waves -->
  <g transform="translate(256,270)" opacity="0.6">
    <path d="M-130 52 Q-90 28-50 52 Q-10 76 30 52 Q70 28 110 52" fill="none" stroke="white" stroke-width="8" stroke-linecap="round"/>
    <path d="M-115 78 Q-75 58-35 78 Q5 98 45 78 Q85 58 125 78" fill="none" stroke="white" stroke-width="6" stroke-linecap="round" opacity="0.5"/>
  </g>
</svg>
